<svg aria-hidden="true" style="position: absolute; width: 0; height: 0; overflow: hidden;" version="1.1" xmlns="http://www.w3.org/2000/svg" xmlns:xlink="http://www.w3.org/1999/xlink">
<defs>
<symbol id="icon-hand-grab-o" viewBox="0 0 24 28">
<title>hand-grab-o</title>
<path d="M12 6c-1.109 0-2 0.891-2 2v2h-0.5v-1.453c0-0.984-0.75-1.797-1.75-1.797-0.969 0-1.75 0.781-1.75 1.75v6.703l-0.5-0.469v-2.688c0-0.984-0.75-1.797-1.75-1.797-0.969 0-1.75 0.781-1.75 1.75v3.5c0 0.484 0.203 0.938 0.547 1.281l4.844 4.625c0.453 0.453 0.609 0.969 0.609 1.594 0 0.547 0.453 1 1 1h10c0.547 0 1-0.453 1-1v-0.391c0-0.406 0.047-0.812 0.156-1.203l1.687-6.813c0.109-0.391 0.156-0.797 0.156-1.203v-3.844c0-0.984-0.75-1.797-1.75-1.797-0.969 0-1.75 0.781-1.75 1.75v0.5h-0.5v-1.953c0-0.828-0.562-1.594-1.391-1.766-0.109-0.016-0.234-0.031-0.359-0.031-0.969 0-1.75 0.781-1.75 1.75v2h-0.5v-1.906c0-1.047-0.75-1.969-1.797-2.078-0.078-0.016-0.141-0.016-0.203-0.016zM12 4c0.844 0 1.656 0.266 2.328 0.781 0.578-0.344 1.25-0.531 1.922-0.531 1.234 0 2.375 0.594 3.078 1.609 0.297-0.078 0.609-0.109 0.922-0.109 2.094 0 3.75 1.719 3.75 3.797v3.844c0 0.562-0.078 1.141-0.203 1.687l-1.703 6.813c-0.094 0.375-0.094 0.734-0.094 1.109 0 1.656-1.344 3-3 3h-10c-1.781 0-3-1.422-3-3.141l-4.813-4.625c-0.734-0.703-1.188-1.703-1.188-2.734v-3.5c0-2.063 1.687-3.75 3.75-3.75 0.094 0 0.172 0 0.25 0.016 0.125-1.984 1.781-3.516 3.75-3.516 0.531 0 1.047 0.109 1.531 0.328 0.734-0.703 1.703-1.078 2.719-1.078z"></path>
</symbol>
<symbol id="icon-file-text2" viewBox="0 0 32 32">
<title>file-text2</title>
<path d="M28.681 7.159c-0.694-0.947-1.662-2.053-2.724-3.116s-2.169-2.030-3.116-2.724c-1.612-1.182-2.393-1.319-2.841-1.319h-15.5c-1.378 0-2.5 1.121-2.5 2.5v27c0 1.378 1.122 2.5 2.5 2.5h23c1.378 0 2.5-1.122 2.5-2.5v-19.5c0-0.448-0.137-1.23-1.319-2.841zM24.543 5.457c0.959 0.959 1.712 1.825 2.268 2.543h-4.811v-4.811c0.718 0.556 1.584 1.309 2.543 2.268zM28 29.5c0 0.271-0.229 0.5-0.5 0.5h-23c-0.271 0-0.5-0.229-0.5-0.5v-27c0-0.271 0.229-0.5 0.5-0.5 0 0 15.499-0 15.5 0v7c0 0.552 0.448 1 1 1h7v19.5z"></path>
<path d="M23 26h-14c-0.552 0-1-0.448-1-1s0.448-1 1-1h14c0.552 0 1 0.448 1 1s-0.448 1-1 1z"></path>
<path d="M23 22h-14c-0.552 0-1-0.448-1-1s0.448-1 1-1h14c0.552 0 1 0.448 1 1s-0.448 1-1 1z"></path>
<path d="M23 18h-14c-0.552 0-1-0.448-1-1s0.448-1 1-1h14c0.552 0 1 0.448 1 1s-0.448 1-1 1z"></path>
</symbol>
<symbol id="icon-display" viewBox="0 0 32 32">
<title>display</title>
<path d="M0 2v20h32v-20h-32zM30 20h-28v-16h28v16zM21 24h-10l-1 4-2 2h16l-2-2z"></path>
</symbol>
<symbol id="icon-user" viewBox="0 0 32 32">
<title>user</title>
<path d="M18 22.082v-1.649c2.203-1.241 4-4.337 4-7.432 0-4.971 0-9-6-9s-6 4.029-6 9c0 3.096 1.797 6.191 4 7.432v1.649c-6.784 0.555-12 3.888-12 7.918h28c0-4.030-5.216-7.364-12-7.918z"></path>
</symbol>
<symbol id="icon-airplane" viewBox="0 0 32 32">
<title>airplane</title>
<path d="M24 19.999l-5.713-5.713 13.713-10.286-4-4-17.141 6.858-5.397-5.397c-1.556-1.556-3.728-1.928-4.828-0.828s-0.727 3.273 0.828 4.828l5.396 5.396-6.858 17.143 4 4 10.287-13.715 5.713 5.713v7.999h4l2-6 6-2v-4l-7.999 0z"></path>
</symbol>
<symbol id="icon-scissors" viewBox="0 0 32 32">
<title>scissors</title>
<path d="M28.557 21.24c-2.084-3.256-5.659-4.689-7.985-3.201-0.201 0.129-0.385 0.275-0.555 0.437l-2.483-3.883 5.733-8.999c0.469-0.867 0.642-1.899 0.415-2.937-0.218-0.992-0.766-1.826-1.503-2.413l-0.384-0.244-6.796 10.629-6.796-10.629-0.384 0.244c-0.737 0.587-1.285 1.421-1.503 2.413-0.228 1.038-0.055 2.070 0.415 2.937l5.733 8.999-2.483 3.883c-0.169-0.162-0.354-0.308-0.554-0.437-2.326-1.488-5.901-0.055-7.985 3.201s-1.887 7.103 0.438 8.591c2.326 1.488 5.901 0.055 7.985-3.201l5.134-8.058 5.134 8.058c2.084 3.256 5.659 4.689 7.985 3.201s2.522-5.335 0.438-8.591zM7.339 25.013c-0.938 1.466-2.142 2.179-2.955 2.358-0 0-0 0-0 0-0.265 0.058-0.634 0.094-0.885-0.067-0.278-0.178-0.463-0.648-0.494-1.259-0.050-0.989 0.301-2.151 0.965-3.189 0.938-1.466 2.142-2.179 2.955-2.358 0.266-0.058 0.635-0.094 0.886 0.066 0.278 0.178 0.463 0.648 0.494 1.259 0.051 0.989-0.301 2.151-0.965 3.189zM15 16c-0.552 0-1-0.448-1-1s0.448-1 1-1 1 0.448 1 1-0.448 1-1 1zM26.995 26.046c-0.031 0.61-0.216 1.081-0.494 1.259-0.251 0.161-0.62 0.125-0.885 0.067 0 0 0 0-0 0-0.814-0.179-2.017-0.892-2.955-2.358-0.664-1.037-1.016-2.2-0.965-3.189 0.031-0.61 0.216-1.081 0.494-1.259 0.251-0.16 0.62-0.125 0.886-0.066 0.814 0.179 2.017 0.892 2.955 2.358 0.664 1.037 1.016 2.2 0.965 3.189z"></path>
</symbol>
</defs>
</svg>
